<svg xmlns="http://www.w3.org/2000/svg" viewBox="0 0 1200 675" role="img" aria-labelledby="title desc">
  <title id="title">Spelare sammankopplade online</title>
  <desc id="desc">Fyra spelarsymboler är sammanbundna runt en lysande jordglob.</desc>
  <defs><radialGradient id="bg"><stop stop-color="#214f69"/><stop offset="1" stop-color="#081a2d"/></radialGradient></defs>
  <rect width="1200" height="675" fill="url(#bg)"/>
  <g stroke="#50d5c8" stroke-width="8" opacity=".7"><path d="M600 338L244 158"/><path d="M600 338l356-180"/><path d="M600 338L250 550"/><path d="M600 338l350 212"/></g>
  <circle cx="600" cy="338" r="178" fill="#0b7b78" stroke="#8be8df" stroke-width="12"/>
  <g fill="none" stroke="#b8fff6" stroke-width="7" opacity=".85"><ellipse cx="600" cy="338" rx="75" ry="178"/><ellipse cx="600" cy="338" rx="178" ry="72"/><path d="M426 302h348M426 374h348"/></g>
  <path d="M487 230l70-38 54 52-26 69-73 14-43-50zM638 362l83-33 42 58-35 89-82 22-57-65z" fill="#9de1a9" opacity=".95"/>
  <g fill="#f6c85f" stroke="#fff4c8" stroke-width="6">
    <circle cx="220" cy="145" r="56"/><circle cx="980" cy="145" r="56"/><circle cx="220" cy="565" r="56"/><circle cx="980" cy="565" r="56"/>
  </g>
  <g fill="#173f5f"><circle cx="220" cy="130" r="17"/><path d="M184 176c8-29 64-29 72 0z"/><circle cx="980" cy="130" r="17"/><path d="M944 176c8-29 64-29 72 0z"/><circle cx="220" cy="550" r="17"/><path d="M184 596c8-29 64-29 72 0z"/><circle cx="980" cy="550" r="17"/><path d="M944 596c8-29 64-29 72 0z"/></g>
  <g fill="#ffffff" opacity=".3"><circle cx="115" cy="315" r="8"/><circle cx="1090" cy="340" r="11"/><circle cx="830" cy="82" r="7"/></g>
</svg>
